<svg width="512" height="512" viewBox="0 0 512 512" fill="none" xmlns="http://www.w3.org/2000/svg">
<rect width="512" height="512" rx="100" fill="url(#paint0_linear_112_15)"/>
<path d="M287.351 190.018C289.15 188.056 291.094 185.68 292.805 183.798L303.053 169.603C303.501 168.981 303.883 168.314 304.201 167.616C306.892 161.701 309.985 156.017 313.66 150.636C316.732 146.143 320.136 141.923 324.129 138.261C333.654 129.526 344.789 124.297 357.783 123.09C362.117 122.686 366.361 122.934 370.604 123.584C375.813 124.383 380.798 125.945 385.44 128.501C385.665 128.625 385.892 128.803 386.138 128.821C386.44 128.843 386.597 128.434 386.438 128.177L386.396 128.109C386.186 127.767 385.973 127.42 385.718 127.111C381.504 121.995 376.495 117.847 370.482 115.043C361.788 110.99 352.541 109.228 343.003 109.018C337.848 108.904 332.712 109.312 327.622 110.259C320.072 111.665 312.767 113.775 305.891 117.272C300.367 120.081 295.109 123.29 290.057 126.895C280.346 133.83 271.741 141.936 263.961 150.947C260.479 154.984 257.22 159.201 254.299 163.665C252.559 166.325 250.906 169.043 249.26 171.763C248.416 173.158 247.617 174.585 246.897 176.048C245.451 178.976 243.992 181.901 242.697 184.894C241.78 187.015 241.049 189.227 240.375 191.44C239.876 193.078 239.619 194.789 239.228 196.462C237.78 202.666 236.852 208.95 236.42 215.303C235.829 224.013 236.641 232.654 238.003 241.24C239.147 248.448 240.585 255.613 241.788 262.812C242.651 267.98 243.339 273.174 244.119 278.355C244.22 279.036 245.102 279.062 245.224 278.385C245.346 277.715 245.435 277.046 245.505 276.375C246.347 268.33 247.728 260.389 249.805 252.563C253.436 238.879 259.373 226.269 267.449 214.677C273.5 205.993 280.195 197.817 287.351 190.018Z" fill="#4B3F63"/>
<path d="M127.386 453.611C127.057 453.134 126.844 452.956 126.801 452.745C126.312 450.304 125.84 447.859 125.379 445.412C124.318 439.798 124.31 434.133 124.58 428.459C124.702 425.888 124.936 423.322 125.206 420.762C126.269 410.661 129.51 401.168 133.425 391.882C134.323 389.753 135.583 387.781 136.638 385.717C140.532 378.093 145.642 371.294 151.044 364.717C154.862 360.066 158.888 355.574 163.38 351.562C169.988 345.662 176.955 340.215 184.453 335.462C196.322 327.935 208.966 321.98 221.947 316.682C233.876 311.815 246.028 307.56 258.14 303.187C264.681 300.827 271.24 298.501 277.689 295.911C292.599 289.925 307.31 283.49 321.248 275.434C327.352 271.908 333.255 268.069 339.051 264.058C345.918 259.304 352.353 254.014 358.583 248.469C367.207 240.799 375.236 232.563 382.144 223.288C384.71 219.843 387.327 216.43 389.72 212.869C393.314 207.522 396.674 202.023 399.41 196.169C400.5 193.835 401.741 191.566 402.761 189.203C405.691 182.41 408.06 175.406 409.779 168.219C411.058 162.875 411.837 157.422 412.14 151.919C412.328 148.49 412.439 145.056 412.593 141.621C412.623 140.958 412.703 140.297 412.9 139.619C413.829 142.733 414.662 145.851 415.175 149.048C416.144 155.108 416.184 161.213 415.747 167.302C414.851 179.726 412.018 191.701 407.391 203.291C403.133 213.956 397.58 223.897 391.455 233.569C386.472 241.439 380.625 248.623 374.478 255.595C363.324 268.247 350.691 279.174 336.464 288.238C328.919 293.046 320.976 297.122 312.8 300.751C301.959 305.564 290.829 309.597 279.499 313.078C267.522 316.755 255.51 320.31 243.532 323.982C234.831 326.65 226.232 329.632 217.865 333.222C205.037 338.729 192.788 345.298 181.633 353.745C174.224 359.356 167.274 365.491 161.173 372.557C157.069 377.308 153.049 382.107 149.546 387.333C142.526 397.814 136.897 408.978 132.947 420.962C130.3 428.988 128.776 437.257 128.007 445.666C127.888 446.95 127.721 448.229 127.618 449.513C127.518 450.77 127.47 452.03 127.381 453.606L127.386 453.611Z" fill="#4B3F63"/>
<path d="M154.247 470.803C154.268 470.466 154.211 470.097 154.325 469.792C156.629 463.6 158.505 457.246 161.373 451.267C165.51 442.648 170.27 434.417 176.357 426.993C184.293 417.314 193.154 408.589 203.319 401.27C213.454 393.972 224.305 387.886 235.678 382.718C243.976 378.951 252.551 375.912 261.121 372.861C271.394 369.204 281.88 366.219 292.309 363.053C304.468 359.361 316.535 355.388 328.376 350.78C342.013 345.475 355.189 339.213 367.329 330.966C373.87 326.521 380.225 321.818 386.126 316.54C395.271 308.361 403.25 299.189 409.78 288.779C412.794 283.973 415.722 279.111 418.175 274C421.224 267.646 423.601 261.017 425.571 254.248C425.755 253.62 425.995 253.008 426.251 252.266C426.462 252.547 426.618 252.657 426.618 252.768C426.591 258.884 425.992 264.949 424.581 270.901C421.292 284.769 415.328 297.436 407.287 309.17C403.884 314.135 400.32 318.97 396.377 323.522C391.14 329.569 385.578 335.283 379.542 340.553C371.752 347.355 363.39 353.382 354.62 358.808C349.153 362.19 343.424 365.178 337.696 368.11C325.755 374.215 313.319 379.188 300.701 383.684C290.355 387.37 279.95 390.882 269.537 394.372C260.665 397.346 251.893 400.596 243.19 404.021C237.683 406.186 232.286 408.657 226.944 411.208C220.125 414.463 213.384 417.902 206.927 421.831C196.784 428.004 187.107 434.811 178.338 442.883C173.014 447.783 168.06 453.02 163.381 458.514C160.601 461.777 157.965 465.18 155.777 468.899C155.372 469.584 155.205 470.552 154.195 470.752L154.252 470.803H154.247Z" fill="#4B3F63"/>
<path d="M424.78 186.662C425.36 187.123 425.42 187.822 425.568 188.474C426.628 193.186 427.13 197.954 427.133 202.785C427.135 213.82 424.945 224.444 421.284 234.811C419.107 240.982 416.363 246.888 413.285 252.657C408.087 262.403 401.739 271.357 394.695 279.829C391.507 283.664 387.964 287.175 384.314 290.576C375.358 298.92 365.681 306.302 355.214 312.661C344.385 319.239 332.877 324.385 321.136 329.053C307.885 334.321 294.291 338.558 280.646 342.67C271.363 345.467 262.199 348.644 252.962 351.595C241.82 355.157 231.024 359.575 220.503 364.667C210.181 369.664 200.491 375.708 191.535 382.858C184.947 388.117 178.874 393.958 173.319 400.318C168.852 405.434 164.56 410.671 160.883 416.411C153.936 427.25 148.231 438.647 144.856 451.118C143.666 455.511 142.703 459.958 142.347 464.516C142.261 465.614 142.004 466.698 141.554 467.809C141.508 467.297 141.43 466.784 141.422 466.272C141.365 463.351 141.281 460.43 141.281 457.51C141.281 451.646 142.002 445.867 143.31 440.149C144.4 435.376 145.498 430.61 147.062 425.963C149.372 419.108 152.334 412.549 155.822 406.211C160.702 397.338 166.864 389.425 173.81 382.113C177.598 378.127 181.718 374.476 185.937 370.937C194.073 364.114 202.968 358.41 212.318 353.464C219.828 349.488 227.652 346.133 235.58 343.048C247.828 338.277 260.356 334.356 272.925 330.55C280.401 328.287 287.887 326.062 295.314 323.649C304.947 320.518 314.438 316.985 323.872 313.284C334.946 308.939 345.472 303.543 355.586 297.329C362.037 293.367 368.028 288.75 373.882 283.952C377.945 280.624 381.749 277.018 385.415 273.278C388.115 270.519 390.695 267.625 393.158 264.65C396.004 261.211 398.699 257.643 401.391 254.081C403.827 250.855 405.956 247.427 407.928 243.894C412.034 236.532 415.77 228.999 418.449 220.989C419.239 218.629 419.908 216.229 420.583 213.834C422.307 207.709 423.766 201.528 424.276 195.166C424.502 192.345 424.616 189.513 424.783 186.665L424.78 186.662Z" fill="#4B3F63"/>
<path d="M98.5996 154.07C98.6455 153.87 98.6266 153.587 98.7588 153.447C104.807 147.035 111.71 141.905 120.307 139.439C125.424 137.972 130.601 136.86 135.961 136.491C141.041 136.14 146.11 136 151.13 136.677C158.184 137.629 165.184 138.918 171.952 141.284C182.929 145.117 192.907 150.741 202.058 157.852C208.06 162.516 213.182 168.078 217.855 174.053C221.504 178.719 225.03 183.488 228.694 188.144C229.681 189.398 229.77 190.512 229.193 191.937C227.539 196.021 226.794 200.361 226.069 204.666C224.938 211.372 224.647 218.148 224.914 224.953C225.224 232.868 226.101 240.704 227.739 248.456C227.917 249.295 228.038 250.145 228.157 250.994C228.176 251.126 228.041 251.28 227.906 251.582C227.148 251.143 226.616 250.479 226.045 249.88C219.093 242.592 212.708 234.856 207.188 226.41C202.157 218.714 197.45 210.824 192.907 202.837C188.143 194.461 182.961 186.366 176.824 178.921C170.555 171.317 163.485 164.606 155.111 159.316C147.615 154.582 139.552 151.27 130.806 149.84C125.894 149.037 120.919 148.786 115.918 149.474C112.676 149.919 109.474 150.488 106.361 151.462C104.238 152.125 102.177 152.996 100.086 153.768C99.6328 153.935 99.2497 154.404 98.6023 154.075L98.5996 154.07Z" fill="#4B3F63"/>
<path d="M280.027 43.5544C280.399 42.8018 280.71 42.0223 281.047 41.2536L281.044 41.2562L280.72 41C278.961 42.4997 277.204 44.0021 275.444 45.5019C269.344 50.7023 263.971 56.6257 258.543 62.4924C249.167 72.6264 241.327 83.912 233.918 95.5106C232.533 97.6766 231.403 100.007 230.11 102.235C228.083 105.734 226.164 109.275 224.82 113.108C224.366 114.403 223.746 115.638 223.198 116.898C221.622 120.531 220.291 124.24 219.705 128.184C219.479 129.71 219.047 131.21 218.89 132.742C218.458 136.926 217.849 141.117 217.832 145.306C217.819 149.061 218.294 152.837 219.079 156.557C219.57 158.887 220.458 160.97 221.897 162.834C222.577 163.716 223.333 164.544 224.037 165.41C227.076 169.14 230.104 172.881 233.157 176.601C233.678 177.237 234.031 178.117 234.971 178.195C235.583 176.641 236.091 175.088 236.795 173.626C237.912 171.306 239.167 169.051 240.358 166.766C241.47 164.627 242.695 162.564 244.228 160.692C244.717 160.096 245.121 159.43 245.575 158.804L250.163 152.775C250.56 152.309 250.992 151.901 251.302 151.418L256.616 145.373C257.064 144.933 260.268 141.692 260.454 141.43C262.91 137.994 265.768 134.9 268.74 131.922C272.57 128.086 276.605 124.472 280.869 121.125C282.032 120.213 282.478 119.188 282.116 117.783C282.029 117.451 281.965 117.114 281.873 116.782C281.015 113.637 280.232 110.465 279.274 107.349C276.489 98.297 274.213 89.1395 273.671 79.6422C273.377 74.4983 273.182 69.3572 273.914 64.2106C274.937 57.0114 276.807 50.0927 280.027 43.5544Z" fill="#4B3F63"/>
<path d="M389.888 171.731C389.405 171.402 389.032 171.197 388.714 170.924C384.707 167.495 380.025 165.453 374.949 164.22C372.358 163.591 369.724 163.138 367.063 163.07C356.245 162.801 346.846 166.227 339.028 173.851C334.748 178.025 331.21 182.776 328.069 187.805C324.704 193.193 321.593 198.74 318.449 204.262C314.703 210.842 310.577 217.172 306.1 223.266C304.271 225.757 302.311 228.158 300.306 230.51C295.225 236.475 289.669 241.963 283.667 247.008C276.354 253.157 268.585 258.674 260.594 263.894C259.876 264.364 259.121 264.774 258.371 265.195C258.155 265.316 257.904 265.373 257.488 265.524C257.475 265.035 257.383 264.631 257.472 264.272C257.882 262.605 258.314 260.943 258.789 259.292C259.574 256.569 260.333 253.836 261.223 251.149C262.06 248.627 263.036 246.15 263.986 243.665C264.415 242.543 264.958 241.464 265.387 240.344C268.334 232.666 272.627 225.74 277.325 219.047C284.401 208.973 292.294 199.56 300.7 190.581C306.691 184.184 312.763 177.863 318.899 171.607C323.428 166.991 328.444 162.963 334.071 159.72C341.762 155.29 350.006 152.926 358.903 153.148C365.873 153.32 372.531 154.818 378.557 158.508C382.807 161.112 386.193 164.611 388.895 168.771C389.426 169.589 390.088 170.438 389.888 171.728V171.731Z" fill="#4B3F63"/>
<path d="M211.591 115.849C211.154 118.684 209.819 121.141 209.225 123.805C208.645 126.402 207.997 128.994 207.622 131.624C207.237 134.34 207.072 137.093 206.943 139.839C206.818 142.474 206.867 145.117 206.835 148.002C206.257 147.768 205.866 147.657 205.526 147.463C198.058 143.226 190.574 139.013 183.136 134.72C178.228 131.885 173.355 128.983 168.529 126.011C162.966 122.584 157.327 119.326 151.302 116.747C145.181 114.126 138.83 112.297 132.233 111.566C127.293 111.022 122.326 110.784 117.316 111.159C110.568 111.664 104.072 113.012 97.8015 115.523C97.4103 115.679 96.9894 115.763 96.5793 115.863C96.5173 115.879 96.431 115.787 96.207 115.669C98.9536 112.799 101.533 109.857 104.819 107.597C112.735 102.154 121.511 98.8584 130.846 96.8843C135.738 95.8486 140.691 95.4792 145.677 95.1906C149.902 94.9452 154.108 95.0503 158.293 95.4117C162.647 95.7893 166.991 96.3961 171.297 97.2484C178.743 98.7236 185.985 100.816 192.808 104.166C195.886 105.676 198.865 107.405 201.8 109.185C204.517 110.833 207.118 112.67 209.754 114.444C210.385 114.868 210.963 115.372 211.591 115.86V115.849Z" fill="#4B3F63"/>
<path d="M134.908 354.734C134.582 354.481 134.234 354.249 133.929 353.974C128.644 349.163 122.932 344.886 117.218 340.612C109.949 335.173 103.391 329.005 98.1543 321.539C94.4889 316.316 91.3309 310.785 89.177 304.765C86.467 297.194 84.8826 289.394 85.0068 281.294C85.1175 274.109 86.3726 267.161 88.4887 260.281C91.8086 249.483 97.9356 240.48 105.625 232.447C115.126 222.524 126.851 216.509 140.193 213.641C143.616 212.905 147.176 212.786 150.677 212.438C151.524 212.354 152.396 212.462 153.252 212.53C155.173 212.683 157.095 212.867 159.414 213.075C158.415 213.69 157.678 213.836 156.941 213.965C148.21 215.492 140.058 218.627 132.455 223.114C127.318 226.147 122.838 230.046 118.859 234.495C115.17 238.621 112.168 243.221 109.65 248.134C107.752 251.833 106.689 255.813 105.917 259.885C104.343 268.154 104.281 276.462 105.342 284.78C105.963 289.645 107.048 294.423 108.662 299.064C111.52 307.285 115.278 315.094 119.534 322.681C122.854 328.6 126.144 334.542 129.237 340.583C131.31 344.63 133.016 348.863 134.871 353.021C135.07 353.466 135.159 353.96 135.302 354.43L134.908 354.734Z" fill="#4B3F63"/>
<path d="M144.144 349.937C143.945 349.8 143.724 349.73 143.697 349.616C142.238 343.108 139.498 337.097 136.456 331.22C133.417 325.346 130.197 319.569 127.165 313.693C123.379 306.354 120.116 298.796 117.964 290.788C115.917 283.168 114.984 275.427 115.675 267.567C116.538 257.732 119.393 248.559 125.24 240.448C127.049 237.936 128.846 235.421 130.968 233.16C131.585 232.502 132.136 231.741 133.225 231.226C133.063 231.695 133.017 231.927 132.91 232.127C131.936 233.937 130.874 235.705 129.981 237.556C126.181 245.421 125.682 253.699 126.836 262.225C127.84 269.642 130.267 276.56 133.624 283.201C135.871 287.647 138.101 292.099 140.285 296.578C143.155 302.46 145.547 308.518 146.817 314.977C147.618 319.046 147.82 323.158 147.863 327.286C147.941 334.828 146.558 342.153 144.506 349.373C144.446 349.581 144.268 349.754 144.144 349.945V349.937Z" fill="#4B3F63"/>
<defs>
<linearGradient id="paint0_linear_112_15" x1="465.544" y1="2.92243e-05" x2="46.4557" y2="512" gradientUnits="userSpaceOnUse">
<stop stop-color="white"/>
<stop offset="1" stop-color="#9D8CBF"/>
</linearGradient>
</defs>
</svg>
